# xmcd
#
# Track frame offsets: 
#        150
#        3739
#        15164
#        29887
#        42787
#        58860
#        73960
#        90513
#        104375
#        115897
#        125090
#        136836
#        148593
#
# Disc length: 2156 seconds
#
# Revision: 0
# Processed by: cddbd v1.5.2PL0 Copyright (c) Steve Scherf et al.
# Submitted via: ExactAudioCopy v0.95b4
#
DISCID=b9086a0d
DTITLE=The Sadies - New Seasons
DYEAR=2007
DGENRE=Country
TTITLE0=Introduction
TTITLE1=The First Inquisition Pt.IV
TTITLE2=What's Left Behind
TTITLE3=Sunset To Dawn
TTITLE4=Yours To Discover
TTITLE5=Anna Leigh
TTITLE6=The Trial
TTITLE7=My Heart Of Wood
TTITLE8=A Simple Aspiration
TTITLE9=Wolf Tones
TTITLE10=Never Again
TTITLE11=The Land Between
TTITLE12=The Last Inquisition Pt.V
EXTD=
EXTT0=
EXTT1=
EXTT2=
EXTT3=
EXTT4=
EXTT5=
EXTT6=
EXTT7=
EXTT8=
EXTT9=
EXTT10=
EXTT11=
EXTT12=
PLAYORDER=
